<svg width="118" height="75" viewBox="0 0 118 75" fill="none" xmlns="http://www.w3.org/2000/svg">
<path fill-rule="evenodd" clip-rule="evenodd" d="M13.039 46.863L25.849 19.303L53.314 1.277C54.7999 0.421657 56.4883 -0.0189222 58.2027 0.00130742C59.9171 0.021537 61.5947 0.501831 63.06 1.392L103.834 28.153L104.247 46.14L62.868 73.282L62.838 73.3C61.4181 74.0956 59.8217 74.523 58.1943 74.5433C56.5668 74.5636 54.9602 74.176 53.521 73.416L53.465 73.384L40.011 64.558L13.039 46.863Z" fill="white"/>
<path fill-rule="evenodd" clip-rule="evenodd" d="M15.391 45.894L26.937 21.087L54.425 3.04899C55.5718 2.40771 56.8668 2.07861 58.1806 2.09458C59.4945 2.11055 60.7811 2.47102 61.912 3.13999L102.275 29.619L101.008 45.741L71.33 65.226L61.755 71.512C60.6545 72.1125 59.4236 72.4342 58.1701 72.449C56.9165 72.4638 55.6784 72.1713 54.564 71.597L15.391 45.894Z" fill="#E5353B"/>
<path fill-rule="evenodd" clip-rule="evenodd" d="M51.283 32.216C51.2423 32.6804 51.1282 33.1354 50.945 33.564C50.8578 33.773 50.7824 33.9866 50.719 34.204C50.883 34.17 51.049 34.143 51.219 34.125C51.369 34.109 51.519 34.1 51.671 34.098C51.72 33.7178 51.7915 33.3408 51.885 32.969C51.9643 32.655 52.0493 32.3453 52.14 32.04C51.8597 32.1199 51.5739 32.1791 51.285 32.217L51.283 32.216ZM45.495 28.605C45.146 26.9286 45.4006 25.1828 46.214 23.676C47.9209 20.4517 50.4919 17.7664 53.639 15.921C54.2915 15.4776 54.9682 15.0709 55.666 14.703C57.3565 13.9392 59.2266 13.6622 61.066 13.903C64.752 14.121 66.778 16.794 66.686 20.335C66.62 22.925 65.151 26.799 63.839 29.712C63.922 29.662 64.006 29.612 64.088 29.559C64.31 29.414 64.529 29.268 64.749 29.12C66.049 28.247 67.334 27.356 68.654 26.512C68.735 26.46 68.818 26.412 68.903 26.362C69.18 26.18 69.458 25.999 69.738 25.82C70.4751 25.3074 71.3404 25.0105 72.2369 24.9627C73.1334 24.9148 74.0255 25.1178 74.813 25.549C75.2407 25.8211 75.6063 26.1802 75.886 26.603C76.1656 27.0259 76.353 27.5029 76.436 28.003C77.9185 27.287 79.5696 26.9936 81.208 27.155C82.2367 27.2378 83.2261 27.5874 84.0786 28.1692C84.931 28.7511 85.617 29.5451 86.069 30.473C86.2987 30.319 86.5364 30.1771 86.781 30.048C87.462 29.5416 88.2132 29.1373 89.011 28.848C90.0007 28.4349 91.0951 28.3426 92.14 28.5841C93.1849 28.8255 94.1278 29.3886 94.836 30.194C94.906 30.158 94.978 30.125 95.05 30.094C95.5622 29.6407 96.1795 29.3225 96.8459 29.1683C97.5123 29.0141 98.2067 29.0287 98.866 29.211C99.69 29.4383 100.413 29.9381 100.916 30.629C101.373 29.8929 101.981 29.2615 102.699 28.776C102.924 28.6246 103.157 28.4873 103.399 28.365C103.523 28.265 103.65 28.174 103.781 28.086C104.963 27.3364 106.334 26.9399 107.733 26.9429C109.133 26.9459 110.502 27.3484 111.681 28.103C112.254 28.5121 112.746 29.0249 113.13 29.615C114.104 29.6074 115.052 29.9307 115.818 30.5321C116.584 31.1334 117.124 31.9771 117.348 32.925C117.526 33.9667 117.389 35.0379 116.954 36.0011C116.519 36.9642 115.806 37.7752 114.906 38.33C114.759 38.415 114.606 38.497 114.457 38.572C114.26 38.739 114.048 38.8885 113.825 39.019C113.347 39.2952 112.845 39.5269 112.325 39.711C111.976 40.9066 111.321 41.9905 110.425 42.856C108.652 44.426 106.532 45.552 104.238 46.141C103.358 46.3687 102.439 46.4036 101.545 46.2435C100.65 46.0833 99.8003 45.7318 99.054 45.213C98.645 45.382 98.237 45.553 97.834 45.735C97.664 45.811 97.497 45.89 97.334 45.972C95.96 49.449 93.805 54.852 91.47 57.472C90.698 58.3752 89.7708 59.1331 88.732 59.71C87.83 60.4952 86.6985 60.9681 85.506 61.0582C84.3135 61.1483 83.1237 60.8508 82.114 60.21C79.608 58.667 79.151 55.521 79.802 52.867C80.7243 49.5243 82.667 46.5528 85.359 44.367C85.1354 44.0803 84.9436 43.7701 84.787 43.442C84.725 43.486 84.662 43.529 84.6 43.571C84.35 43.7383 84.0937 43.895 83.831 44.041C83.731 44.117 83.623 44.192 83.516 44.263C82.4311 45.0117 81.2035 45.5291 79.9099 45.7826C78.6163 46.0362 77.2843 46.0207 75.997 45.737C74.3494 45.3652 72.884 44.4284 71.855 43.089C71.725 43.2223 71.5986 43.3556 71.476 43.489C70.3429 47.3981 68.793 51.1741 66.853 54.752C65.439 57.4099 63.3469 59.6463 60.789 61.234C59.4293 62.2302 57.8529 62.8902 56.189 63.16C53.203 63.618 50.924 62.012 49.835 59.284C47.953 54.569 49.363 50.012 52.406 46.168C54.0762 44.2413 56.0199 42.5698 58.175 41.207C57.2445 41.2104 56.3198 41.059 55.439 40.759C55.3408 41.023 55.2273 41.2811 55.099 41.532C54.7879 42.1606 54.4424 42.7715 54.064 43.362C53.5472 44.1493 52.9251 44.8622 52.215 45.481C51.737 45.9025 51.211 46.2663 50.648 46.565C49.812 47.1847 48.862 47.6335 47.8523 47.8857C46.8427 48.138 45.7932 48.1887 44.764 48.035C43.8273 47.9634 42.9342 47.6098 42.2023 47.0207C41.4705 46.4316 40.9341 45.6348 40.664 44.735C40.5016 44.8359 40.3329 44.9265 40.159 45.006C39.6121 45.4847 38.9542 45.8191 38.2451 45.9789C37.5361 46.1387 36.7984 46.1188 36.099 45.921C35.1833 45.6684 34.404 45.0651 33.93 44.242L33.805 44.308C33.361 44.6498 32.8788 44.9387 32.368 45.169C28.228 47.008 23.544 46.013 22.144 41.651C20.9637 42.7771 19.6613 43.768 18.261 44.605C15.3666 46.6637 11.9049 47.774 8.35298 47.783C2.31898 47.65 -1.11301 43.921 0.321993 37.872C1.19536 34.3321 3.08987 31.1269 5.76999 28.655C4.93982 27.8687 4.43939 26.7963 4.37 25.655C4.20463 24.2958 4.45767 22.9186 5.09535 21.707C5.73304 20.4954 6.72504 19.5071 7.939 18.874C8.47025 18.4624 9.05748 18.1287 9.68299 17.883C14.476 15.978 22.164 15.347 26.153 19.165C27.3267 20.3706 28.2204 21.82 28.7707 23.41C29.321 25.0001 29.5143 26.6918 29.337 28.365C29.402 28.317 29.468 28.271 29.537 28.226C30.6254 27.4588 31.9063 27.0103 33.2356 26.931C34.5649 26.8517 35.89 27.1446 37.062 27.777C37.57 28.0706 38.0214 28.4526 38.395 28.905C38.8874 28.6598 39.4084 28.4768 39.946 28.36C40.6571 28.1969 41.3951 28.1895 42.1093 28.3383C42.8235 28.4871 43.4971 28.7885 44.084 29.222V29.222C44.5311 28.9669 45.0041 28.7601 45.495 28.605Z" fill="white"/>
<path fill-rule="evenodd" clip-rule="evenodd" d="M115.99 33.225C115.892 32.8443 115.719 32.4867 115.482 32.1728C115.245 31.8589 114.949 31.5949 114.61 31.3958C114.271 31.1967 113.896 31.0665 113.506 31.0127C113.117 30.9588 112.72 30.9824 112.34 31.082C112.033 30.3493 111.531 29.7154 110.887 29.25C109.941 28.658 108.847 28.344 107.731 28.344C106.615 28.344 105.521 28.658 104.575 29.25C104.439 29.3431 104.308 29.4432 104.183 29.55C103.942 29.6601 103.711 29.7888 103.49 29.935C102.855 30.3709 102.335 30.9542 101.974 31.635C101.766 31.7626 101.565 31.9025 101.374 32.054C101.308 32.084 101.247 32.109 101.174 32.145C100.847 32.3305 100.535 32.5429 100.243 32.78C100.225 32.2706 100.044 31.7805 99.7274 31.3813C99.4105 30.9822 98.974 30.695 98.482 30.562C98.0132 30.4338 97.5185 30.4348 97.0502 30.5649C96.5819 30.695 96.1575 30.9493 95.822 31.301C95.2108 31.5138 94.6912 31.93 94.35 32.48C93.931 29.98 91.3 29.48 89.514 30.16C88.8002 30.4155 88.1316 30.7827 87.533 31.248C87.528 31.248 87.527 31.253 87.524 31.256C87.1442 31.4474 86.7845 31.6762 86.45 31.939C86.1909 32.1449 85.9454 32.3673 85.715 32.605C85.515 32.812 85.301 33.044 85.062 33.305C85.1405 32.7272 85.0974 32.1393 84.9354 31.5791C84.7735 31.0189 84.4963 30.4987 84.1216 30.0519C83.7468 29.605 83.2829 29.2414 82.7595 28.9843C82.2361 28.7273 81.6647 28.5824 81.082 28.559C79.1803 28.3643 77.2762 28.9046 75.76 30.069C75.4583 30.2293 75.1668 30.4079 74.887 30.604C74.927 30.433 74.969 30.261 75.005 30.084C75.786 26.324 72.647 25.635 70.495 27.009C70.21 27.191 69.931 27.375 69.653 27.557C69.571 27.602 69.491 27.649 69.412 27.7C68.03 28.584 66.746 29.478 65.535 30.291C65.307 30.443 65.084 30.591 64.861 30.736C64.421 31.006 63.988 31.254 63.561 31.479L61.604 31.186C61.658 31.055 61.719 30.931 61.767 30.83C63.567 27.157 65.223 22.655 65.284 20.303C65.348 17.875 64.209 15.503 60.984 15.309C59.3998 15.0963 57.7875 15.3175 56.319 15.949C55.6497 16.302 55.0019 16.6944 54.379 17.124C51.4424 18.8359 49.043 21.3351 47.452 24.339C46.752 25.657 46.185 28.233 47.633 29.714C46.3257 29.676 45.0494 30.1158 44.043 30.951C43.934 31.003 43.828 31.051 43.721 31.116C43.254 29.646 41.213 29.53 40.227 29.737C39.3955 29.9412 38.6114 30.3046 37.918 30.807C37.606 30.052 37.059 29.4176 36.358 28.998C35.4147 28.4932 34.349 28.2625 33.2814 28.3319C32.2138 28.4014 31.187 28.7682 30.317 29.391C30.199 29.471 30.087 29.561 29.978 29.65C29.7198 29.7777 29.4702 29.9224 29.231 30.083C28.7069 30.437 28.2501 30.8816 27.882 31.396C27.7508 31.4549 27.6232 31.5217 27.5 31.596C27.3129 31.7112 27.1332 31.8381 26.962 31.976C27.124 31.565 27.278 31.146 27.421 30.721C28.0447 28.9264 28.1652 26.9954 27.7695 25.1372C27.3737 23.279 26.4768 21.5647 25.176 20.18C22.005 17.146 15.266 17.174 10.197 19.189C9.65858 19.4015 9.15605 19.6956 8.70703 20.061C7.70414 20.5524 6.88075 21.3462 6.35294 22.3304C5.82512 23.3146 5.61949 24.4397 5.76503 25.547C5.795 26.1928 6.0298 26.8123 6.43541 27.3157C6.84102 27.8191 7.39638 28.1803 8.02103 28.347L8.21103 28.396C4.98937 30.8298 2.68894 34.2849 1.68602 38.196C0.477021 43.296 3.11003 46.262 8.38103 46.378C11.6524 46.3669 14.8387 45.3345 17.495 43.425C19.6641 42.1229 21.5854 40.4471 23.17 38.475C23.1344 38.9834 23.1478 39.4941 23.21 40C23.925 45.319 28.953 45.147 31.796 43.884C32.25 43.6765 32.6763 43.4131 33.065 43.1C33.681 42.7853 34.2441 42.3763 34.734 41.888C34.7312 42.1192 34.75 42.3502 34.79 42.578C34.8523 43.0346 35.0434 43.464 35.341 43.8159C35.6385 44.1678 36.0301 44.4276 36.47 44.565C36.9832 44.7103 37.5259 44.7157 38.0419 44.5804C38.5578 44.4452 39.0281 44.1744 39.404 43.796C40.2048 43.4461 40.8737 42.8508 41.314 42.096L41.644 41.51C41.618 42.1554 41.6585 42.8019 41.765 43.439C42.122 45.296 43.165 46.475 44.888 46.63C47.2154 46.6681 49.4817 45.8841 51.288 44.416C51.9028 43.8811 52.4411 43.2644 52.888 42.583C53.2383 42.0347 53.5574 41.4671 53.844 40.883C54.2152 40.1715 54.4203 39.3851 54.444 38.583C55.5433 39.4475 56.9223 39.8771 58.318 39.79C59.9885 39.771 61.6339 39.382 63.136 38.651C63.264 38.5923 63.392 38.532 63.52 38.47L63.028 39.738C62.489 40.075 61.949 40.415 61.416 40.759C58.263 42.748 55.216 44.859 53.499 47.028C50.727 50.528 49.461 54.568 51.131 58.751C51.984 60.885 53.647 62.115 55.966 61.76C57.4346 61.5198 58.8239 60.9302 60.017 60.041C62.3929 58.5822 64.331 56.5094 65.627 54.041C67.5536 50.4596 69.0916 46.6824 70.215 42.774C70.6424 42.2771 71.1089 41.8153 71.61 41.393C71.6447 41.3778 71.6805 41.3651 71.717 41.355C71.8948 41.3015 72.0831 41.2929 72.265 41.33C72.296 41.341 72.351 41.361 72.427 41.484C72.8451 42.196 73.4018 42.8168 74.0641 43.3098C74.7265 43.8028 75.481 44.1578 76.283 44.354C77.3866 44.6001 78.5293 44.6144 79.6387 44.3959C80.7481 44.1775 81.8001 43.7311 82.728 43.085C82.833 43.014 82.94 42.936 83.048 42.853C83.3054 42.7137 83.5594 42.561 83.81 42.395C84.474 41.9212 85.0914 41.3855 85.654 40.795C85.5801 41.5152 85.7237 42.241 86.0663 42.8787C86.4089 43.5165 86.9348 44.037 87.576 44.373C84.4806 46.4819 82.2124 49.599 81.158 53.193C80.584 55.535 81.058 57.909 82.841 59.004C83.6309 59.5045 84.5652 59.7271 85.4959 59.6366C86.4266 59.546 87.3005 59.1474 87.979 58.504C88.9056 58.0028 89.731 57.3338 90.413 56.531C92.174 54.555 94.105 50.293 96.213 44.96C96.571 44.771 96.913 44.604 97.249 44.452C97.99 44.118 98.743 43.818 99.344 43.569C99.9292 44.162 100.663 44.5864 101.469 44.7976C102.275 45.0087 103.123 44.9989 103.924 44.769C105.973 44.2279 107.87 43.2199 109.465 41.824C110.347 40.9474 110.938 39.8197 111.155 38.595C111.842 38.4176 112.502 38.151 113.12 37.802C113.322 37.6814 113.511 37.5392 113.683 37.378C113.86 37.294 114.035 37.208 114.203 37.111C114.843 36.7048 115.352 36.1213 115.667 35.4314C115.982 34.7415 116.09 33.975 115.977 33.225" fill="white"/>
<path fill-rule="evenodd" clip-rule="evenodd" d="M49.56 30.739C49.7633 31.081 49.878 31.4684 49.8939 31.866C49.9098 32.2635 49.8263 32.6588 49.651 33.016C49.2518 34.0794 49.0041 35.1936 48.915 36.326C48.904 36.4 48.902 36.463 48.898 36.516C48.998 36.459 49.141 36.373 49.352 36.248C49.9671 35.8675 50.6547 35.6192 51.371 35.519C51.9468 35.4492 52.5302 35.5537 53.046 35.819C52.9604 34.9771 53.0281 34.1267 53.246 33.309C53.5663 31.9811 54.0476 30.6973 54.679 29.486C54.845 29.166 55.011 28.87 55.179 28.586C54.9276 28.8562 54.6477 29.0983 54.344 29.308C54.1265 29.4488 53.9004 29.5757 53.667 29.688C53.5389 29.8006 53.4029 29.9039 53.26 29.997C52.7294 30.3726 52.1261 30.633 51.4889 30.7613C50.8516 30.8896 50.1945 30.883 49.56 30.742V30.739ZM8.70398 20.066C9.15584 19.6987 9.66183 19.4035 10.204 19.191C15.273 17.177 22.012 17.147 25.183 20.183C26.4837 21.5677 27.3805 23.2821 27.7763 25.1402C28.172 26.9984 28.0516 28.9294 27.428 30.724C27.2833 31.1487 27.13 31.5666 26.968 31.978C27.1387 31.8401 27.3181 31.7131 27.505 31.598C27.6277 31.5217 27.7549 31.4529 27.886 31.392C28.2547 30.8793 28.7115 30.4362 29.235 30.083C29.4653 29.9273 29.7055 29.7867 29.954 29.662C30.073 29.562 30.195 29.476 30.322 29.391C31.192 28.7681 32.2189 28.4009 33.2866 28.3311C34.3543 28.2613 35.4203 28.4916 36.364 28.996C37.0649 29.4163 37.6116 30.0514 37.923 30.807C38.6163 30.3042 39.4004 29.9401 40.232 29.735C41.217 29.529 43.263 29.643 43.732 31.112C43.832 31.058 43.932 31.012 44.032 30.959C44.2679 30.7666 44.5191 30.5937 44.783 30.442C45.6501 29.945 46.6357 29.6924 47.635 29.711C46.194 28.228 46.766 25.656 47.462 24.339C49.0549 21.33 51.4582 18.8269 54.4 17.113C55.0202 16.6892 55.6639 16.3009 56.328 15.95C57.7962 15.3176 59.4087 15.0964 60.993 15.31C64.217 15.5 65.356 17.875 65.293 20.303C65.233 22.655 63.577 27.158 61.775 30.83C61.475 31.447 60.759 32.913 63.36 31.594C63.848 31.346 64.345 31.061 64.854 30.749C65.08 30.601 65.309 30.4493 65.541 30.294C66.752 29.481 68.041 28.587 69.419 27.703C69.493 27.656 69.568 27.612 69.644 27.569C69.926 27.3837 70.212 27.198 70.502 27.012C72.653 25.638 75.793 26.327 75.012 30.087C74.976 30.261 74.938 30.433 74.897 30.603C75.1738 30.4065 75.4634 30.2288 75.764 30.071C77.281 28.907 79.1858 28.3671 81.088 28.562C81.6709 28.5851 82.2425 28.7298 82.7662 28.9868C83.2899 29.2437 83.7541 29.6073 84.1291 30.0541C84.5041 30.5009 84.7816 31.0212 84.9438 31.5815C85.106 32.1419 85.1493 32.7299 85.071 33.308C85.311 33.044 85.52 32.814 85.722 32.608C85.9522 32.3709 86.197 32.1485 86.455 31.942C86.7955 31.6725 87.1624 31.438 87.55 31.242C88.1458 30.7808 88.8107 30.4163 89.52 30.162C91.306 29.481 93.937 29.985 94.357 32.482C94.6974 31.933 95.2154 31.5169 95.825 31.303C96.1611 30.951 96.5861 30.6964 97.0551 30.5661C97.524 30.4359 98.0195 30.4348 98.489 30.563C98.9787 30.6965 99.4133 30.9823 99.7301 31.379C100.047 31.7757 100.229 32.2628 100.251 32.77C100.542 32.5363 100.853 32.3276 101.179 32.146C101.242 32.1126 101.304 32.082 101.366 32.054C101.558 31.9024 101.758 31.7615 101.966 31.632C102.332 30.954 102.855 30.3743 103.493 29.942C103.709 29.7967 103.936 29.6683 104.172 29.558C104.301 29.449 104.437 29.3472 104.577 29.253C105.523 28.6613 106.617 28.3476 107.733 28.3476C108.849 28.3476 109.943 28.6613 110.889 29.253C111.532 29.7188 112.035 30.3526 112.343 31.085C112.723 30.9855 113.12 30.9621 113.509 31.016C113.898 31.0699 114.273 31.2001 114.612 31.3992C114.951 31.5983 115.248 31.8623 115.484 32.1761C115.721 32.4899 115.894 32.8474 115.992 33.228C116.105 33.978 115.998 34.7447 115.683 35.4347C115.368 36.1247 114.859 36.7082 114.218 37.114C114.045 37.214 113.868 37.307 113.687 37.393C113.518 37.5502 113.333 37.6884 113.134 37.805C112.519 38.1569 111.86 38.4259 111.175 38.605C110.954 39.8275 110.362 40.9523 109.48 41.827C107.885 43.223 105.988 44.2309 103.938 44.772C103.137 45.0014 102.289 45.0111 101.483 44.8C100.678 44.5888 99.9434 44.1647 99.358 43.572C98.758 43.821 98.006 44.121 97.264 44.454C96.933 44.605 96.587 44.772 96.228 44.961C94.119 50.294 92.19 54.561 90.428 56.533C89.7451 57.34 88.9167 58.0117 87.986 58.513C87.308 59.1545 86.4357 59.5519 85.5067 59.6425C84.5777 59.733 83.645 59.5115 82.856 59.013C81.076 57.913 80.597 55.543 81.172 53.201C82.2265 49.607 84.4947 46.49 87.59 44.381C86.9488 44.0451 86.4229 43.5248 86.0802 42.8873C85.7374 42.2497 85.5935 41.5241 85.667 40.804C85.1054 41.3952 84.4882 41.9311 83.824 42.404C83.577 42.569 83.324 42.721 83.073 42.858C82.961 42.943 82.85 43.022 82.741 43.095C81.8132 43.7409 80.7614 44.1873 79.6521 44.4057C78.5429 44.6241 77.4004 44.6099 76.297 44.364C75.4949 44.168 74.7403 43.8129 74.0781 43.3197C73.4159 42.8265 72.8595 42.2053 72.442 41.493C72.365 41.371 72.311 41.35 72.279 41.34C72.0968 41.3021 71.9081 41.3103 71.73 41.364C71.6961 41.3719 71.6628 41.3816 71.63 41.393C71.1273 41.819 70.6592 42.2841 70.23 42.784C69.1073 46.6927 67.5692 50.4699 65.642 54.051C64.3483 56.5178 62.4139 58.5905 60.042 60.051C58.8477 60.9429 57.4561 61.5339 55.985 61.774C53.665 62.13 52.001 60.9 51.15 58.767C49.479 54.583 50.745 50.546 53.518 47.044C55.242 44.864 58.297 42.753 61.461 40.758C61.983 40.42 62.513 40.086 63.044 39.758L63.538 38.489C63.411 38.551 63.282 38.611 63.155 38.669C61.6524 39.3999 60.0067 39.7892 58.336 39.809C56.9434 39.8961 55.567 39.4711 54.466 38.614C54.4362 39.4115 54.2285 40.1922 53.858 40.899C53.5717 41.4817 53.2526 42.0476 52.902 42.594C52.4549 43.2752 51.9166 43.892 51.302 44.427C50.8777 44.8023 50.4072 45.1219 49.902 45.378C49.1988 45.9185 48.3925 46.3094 47.5326 46.5266C46.6727 46.7438 45.7775 46.7827 44.902 46.641C43.181 46.486 42.135 45.306 41.779 43.449C41.6719 42.8136 41.6307 42.1689 41.656 41.525L41.329 42.107C40.8878 42.8627 40.2174 43.4581 39.415 43.807C39.0389 44.1843 38.5686 44.4542 38.0531 44.5885C37.5375 44.7228 36.9954 44.7168 36.483 44.571C36.0433 44.4334 35.652 44.1734 35.3546 43.8216C35.0573 43.4697 34.8663 43.0404 34.804 42.584C34.7633 42.3583 34.7438 42.1293 34.746 41.9C34.2529 42.393 33.6849 42.8048 33.063 43.12C32.679 43.4284 32.2577 43.6871 31.809 43.89C28.968 45.153 23.938 45.325 23.223 40.006C23.1597 39.5019 23.145 38.9929 23.179 38.486C21.5978 40.4531 19.6813 42.1251 17.518 43.425C14.8597 45.3373 11.6706 46.3718 8.39598 46.384C3.12498 46.268 0.495976 43.298 1.70198 38.201C2.70445 34.2897 5.00496 30.8345 8.22697 28.401C8.16297 28.385 8.09997 28.37 8.03697 28.352C7.41229 28.1852 6.8569 27.824 6.45114 27.3206C6.04538 26.8173 5.81032 26.1978 5.77998 25.552C5.63263 24.4467 5.83545 23.3229 6.35995 22.3389C6.88445 21.3548 7.70422 20.5599 8.70398 20.066V20.066ZM14.513 36.974C16.3653 35.5225 17.9108 33.7176 19.06 31.664C21.297 27.993 19.913 26.864 18.267 26.485C17.7385 26.3306 17.1994 26.2157 16.654 26.141C16.4604 26.1213 16.2651 26.127 16.073 26.158C16.2361 26.2685 16.3911 26.3905 16.537 26.523C18.283 28.1 18.073 30.473 16.209 32.165C13.643 34.495 12.351 36.404 12.062 37.837L12.049 37.911C12.3589 37.8635 12.6631 37.7844 12.957 37.675C13.4932 37.4848 14.0127 37.2504 14.51 36.974H14.513Z" fill="#4B4281"/>
<path fill-rule="evenodd" clip-rule="evenodd" d="M63.736 43.54C63.0213 47.1781 61.4617 50.5973 59.183 53.522C57.237 55.884 56.183 55.633 56.306 53.097C56.479 49.497 59.354 46.192 63.736 43.54ZM90.966 45.9C88.37 47.8893 86.7997 49.91 86.255 51.962C85.797 53.683 86.298 54.062 87.33 53.073C89.3143 51.159 90.5953 48.6319 90.966 45.9V45.9ZM76.877 36.165C78.5318 35.8329 79.9895 34.8631 80.935 33.465C81.435 32.807 80.963 32.115 79.796 32.356C78.9623 32.5886 78.2267 33.0859 77.7002 33.7729C77.1738 34.4599 76.8848 35.2995 76.877 36.165V36.165ZM49.965 24.399C51.5637 21.386 54.0457 18.934 57.078 17.372C58.2858 16.8836 59.602 16.7259 60.891 16.915C62.974 17.038 63.726 18.394 63.675 20.259C63.624 22.222 62.128 26.439 60.325 30.119C58.825 33.193 61.232 34.473 64.08 33.028C66.28 31.914 68.623 30.118 71.366 28.363C72.742 27.484 73.825 27.863 73.43 29.755C72.8024 32.3025 71.8665 34.764 70.643 37.085C70.124 38.185 70.459 38.366 71.343 38.054C72.2617 37.8064 73.1267 37.3907 73.894 36.828C74.0489 35.0226 74.7935 33.3183 76.013 31.978C76.6406 31.3194 77.4107 30.8132 78.2642 30.4983C79.1177 30.1833 80.032 30.068 80.937 30.161C82.918 30.342 84.302 32.144 82.981 34.217C82.345 35.1997 81.5198 36.0461 80.5533 36.7065C79.5869 37.367 78.4986 37.8285 77.352 38.064C76.989 38.138 76.907 38.345 77.094 38.633C78.115 40.196 80.032 40.528 82.104 39.141C84.933 37.249 85.704 35.483 87.329 33.706C88.035 32.7747 88.9927 32.0648 90.089 31.66C91.494 31.125 92.948 31.66 92.789 33.524C92.6597 34.7006 92.3466 35.8495 91.861 36.929C91.099 38.754 92.461 39.701 93.822 37.905C94.8861 36.2477 95.8576 34.5328 96.732 32.768C97.301 31.607 99.055 31.925 98.571 33.468C97.549 36.732 96.624 38.985 95.985 40.609C97.3177 40.0313 98.6126 39.37 99.862 38.629C100.241 35.706 101.362 33.787 103.044 32.855C102.927 34.1927 103.145 35.5386 103.678 36.771C103.442 37.0814 103.267 37.4346 103.165 37.811C103.091 38.09 103.124 38.3863 103.256 38.6428C103.388 38.8993 103.61 39.0978 103.88 39.2C104.331 39.3361 104.808 39.3661 105.272 39.2877C105.737 39.2093 106.177 39.0246 106.559 38.748C107.137 38.2686 107.811 37.9184 108.535 37.721C109.195 37.47 109.728 37.521 109.65 37.992C109.527 38.9915 109.08 39.9232 108.377 40.644C107.371 41.6501 106.066 42.3034 104.658 42.506C104.105 42.6945 103.508 42.7116 102.945 42.5551C102.383 42.3986 101.88 42.0758 101.504 41.629C101.169 41.129 100.567 41.097 99.904 41.371C98.1687 41.9974 96.5066 42.8105 94.947 43.796C92.714 49.485 90.807 53.675 89.216 55.46C87.573 57.303 86.186 57.818 84.775 56.948C83.847 56.377 83.317 54.902 83.809 52.892C84.809 48.841 88.209 45.614 92.057 43.383C92.725 42.2998 93.301 41.1625 93.779 39.983C92.7292 40.7916 91.6025 41.495 90.415 42.083C89.315 42.62 88.226 41.806 88.35 40.188C88.511 38.081 89.759 36.764 90.093 35.43C90.283 34.676 89.986 34.239 89.578 34.359C88.583 34.652 85.078 39.616 82.92 41.059C82.1715 41.5855 81.321 41.9494 80.4233 42.1271C79.5256 42.3049 78.6006 42.2926 77.708 42.091C77.1134 41.9393 76.5555 41.6691 76.0678 41.2965C75.5801 40.924 75.1727 40.4568 74.87 39.923C74.6154 39.5348 74.2384 39.2428 73.7989 39.0933C73.3593 38.9439 72.8825 38.9455 72.444 39.098C71.259 39.369 69.81 40.748 68.779 41.988C67.6769 45.8927 66.1533 49.6659 64.235 53.241C62.035 57.041 59.481 59.074 56.811 59.484C55.374 59.704 54.345 59.051 53.711 57.469C52.324 53.994 53.3 50.562 55.845 47.345C57.725 44.97 61.479 42.58 65.407 40.168L67.624 34.468C64.501 35.887 62.633 37.477 59.389 37.503C56.341 37.526 55.179 35.815 55.88 33.011C56.642 29.974 57.717 28.757 58.5 27.111C58.8853 26.2931 58.9937 25.372 58.809 24.487C58.585 23.621 57.823 23.475 57.009 24.242C55.4 25.769 54.101 27.542 53.45 27.958C52.989 28.3108 52.4334 28.5182 51.854 28.5539C51.2746 28.5895 50.6977 28.4517 50.197 28.158C49.212 27.594 49.206 25.833 49.965 24.399ZM109.201 33.619C109.331 33.919 109.446 34.084 109.782 34.012C110.052 33.9561 110.301 33.8248 110.499 33.6333C110.698 33.4418 110.838 33.1979 110.903 32.93C111.01 32.4874 110.976 32.0225 110.808 31.5997C110.639 31.1768 110.343 30.8167 109.961 30.569C109.282 30.1638 108.506 29.9511 107.716 29.9538C106.926 29.9564 106.151 30.1743 105.475 30.584C105.111 30.8416 104.802 31.1688 104.565 31.5467C104.328 31.9246 104.169 32.3457 104.095 32.7856C104.022 33.2255 104.037 33.6755 104.139 34.1097C104.241 34.5438 104.428 34.9535 104.689 35.315C105.483 36.503 107.172 37.075 109.804 36.706C111.061 36.64 112.289 36.3033 113.404 35.719C113.748 35.4845 114.024 35.1619 114.201 34.7848C114.379 34.4077 114.452 33.9899 114.413 33.575C114.331 33.194 113.791 32.304 112.343 32.74C111.602 32.961 111.16 33.749 110.6 34.324C110.097 34.7794 109.471 35.0764 108.8 35.178C107.523 35.528 106.5 35.257 106.235 34.059C106.18 33.8814 106.161 33.6946 106.18 33.5096C106.199 33.3246 106.255 33.1454 106.344 32.9825C106.434 32.8196 106.555 32.6764 106.701 32.5616C106.848 32.4467 107.016 32.3625 107.195 32.314C107.467 32.2149 107.764 32.2062 108.042 32.289C108.319 32.3719 108.563 32.5419 108.736 32.774C108.943 33.024 109.1 33.3107 109.201 33.619V33.619ZM34.721 33.47C34.851 33.77 34.944 33.916 35.28 33.842C35.5628 33.7874 35.8256 33.6577 36.0411 33.4667C36.2566 33.2756 36.4169 33.0302 36.505 32.756C36.6269 32.3134 36.6008 31.8432 36.4307 31.4168C36.2607 30.9904 35.956 30.6312 35.563 30.394C34.8797 30.0397 34.1112 29.883 33.3437 29.9417C32.5763 30.0003 31.8405 30.272 31.219 30.726C30.8513 30.9397 30.5325 31.2283 30.2834 31.573C30.0343 31.9177 29.8604 32.3109 29.7729 32.7271C29.6854 33.1433 29.6864 33.5732 29.7756 33.9891C29.8648 34.4049 30.0404 34.7973 30.291 35.141C31.083 36.327 33.238 36.667 35.037 35.811C35.8519 35.3601 36.6897 34.9519 37.547 34.588C38.0873 34.341 38.694 34.2792 39.273 34.412C39.641 34.547 39.865 34.94 39.599 35.628C38.939 37.322 38.151 38.652 37.673 39.993C37.206 41.307 37.481 42.187 37.986 42.325C38.753 42.534 39.394 42.146 39.935 41.277L41.395 38.677C41.6011 38.2152 41.9454 37.8289 42.3806 37.5713C42.8157 37.3137 43.32 37.1976 43.824 37.239C44.492 37.323 44.594 37.865 44.466 39.039C44.3039 40.1659 44.2935 41.3094 44.435 42.439C44.694 43.776 45.292 44.254 46.125 44.329C46.8524 44.4664 47.6016 44.4356 48.3154 44.2391C49.0291 44.0425 49.6884 43.6854 50.243 43.195C51.1682 42.3383 51.909 41.3018 52.42 40.149C52.6787 39.7524 52.8265 39.2938 52.8482 38.8208C52.8698 38.3477 52.7644 37.8776 52.543 37.459C52.103 36.874 51.115 37.072 50.174 37.628C49.311 38.138 48.554 38.459 47.897 37.968C47.6422 37.7469 47.4531 37.46 47.3503 37.1387C47.2474 36.8174 47.2349 36.474 47.314 36.146C47.4207 34.858 47.7086 33.5916 48.169 32.384C48.469 31.67 48.115 31.406 47.82 31.343C47.0383 31.2585 46.2504 31.4305 45.575 31.833C44.8084 32.356 44.1225 32.9883 43.539 33.71C43.1867 34.0999 42.7861 34.4434 42.347 34.732C41.921 35.007 41.73 34.847 41.788 34.196C41.8439 33.5479 41.9604 32.9064 42.136 32.28C42.376 31.41 41.784 31.048 40.563 31.305C39.8383 31.5018 39.1612 31.8441 38.573 32.311C37.746 32.911 36.986 33.555 36.206 34.14C35.5875 34.5812 34.8903 34.9 34.152 35.079C32.873 35.429 31.896 35.158 31.72 33.937C31.6781 33.5544 31.7641 33.1688 31.9646 32.8402C32.165 32.5117 32.4686 32.2588 32.828 32.121C32.9374 32.0439 33.0624 31.9916 33.1941 31.968C33.3259 31.9443 33.4613 31.9497 33.5907 31.984C33.7201 32.0182 33.8404 32.0803 33.9433 32.166C34.0461 32.2517 34.129 32.3589 34.186 32.48C34.3886 32.7963 34.5674 33.1272 34.721 33.47V33.47ZM28.347 32.97C28.0283 33.752 28.3663 34.7647 29.361 36.008C29.4517 36.163 29.5084 36.3356 29.5274 36.5142C29.5464 36.6928 29.5271 36.8734 29.471 37.044C29.281 38.01 29.225 38.696 30.048 38.855C30.8008 38.9344 31.5555 38.7226 32.157 38.263C32.7274 37.8209 33.3253 37.4154 33.947 37.049C34.2254 36.9605 34.5094 36.8904 34.797 36.839C35.2829 36.7367 35.7477 36.5517 36.171 36.292C35.841 37.849 34.209 40.847 32.232 41.725C29.603 42.893 26.372 42.648 25.896 39.099C25.605 36.943 26.565 34.067 28.347 32.968V32.97ZM10.798 20.689C10.0036 20.9934 9.33785 21.5613 8.91209 22.2978C8.48632 23.0343 8.32637 23.8947 8.45899 24.735C8.57199 26.199 10.019 26.556 12.235 25.89C13.4552 25.4749 14.6283 24.9326 15.735 24.272C17.297 23.463 18.551 23.963 19.708 24.226C22.758 24.926 24.134 27.517 21.517 31.814C19.217 35.581 16.781 38.032 13.491 39.195C11.366 39.947 10.078 39.517 10.48 37.518C10.88 35.554 12.506 33.35 15.123 30.974C16.423 29.792 16.356 28.535 15.455 27.719C14.473 26.834 13.162 26.955 11.535 28.064C7.99525 30.3223 5.42945 33.8242 4.34299 37.88C3.39799 41.863 5.14299 43.98 9.50799 44.08C15.803 44.219 22.982 38.853 25.901 30.207C26.4264 28.7025 26.5335 27.0835 26.2106 25.5229C25.8878 23.9622 25.1472 22.5186 24.068 21.346C21.589 18.975 15.665 18.753 10.798 20.687V20.689Z" fill="white"/>
</svg>
